<?xml version="1.0" encoding="UTF-8"?>
<svg id="Layer_2" data-name="Layer 2" xmlns="http://www.w3.org/2000/svg" xmlns:xlink="http://www.w3.org/1999/xlink" viewBox="0 0 1997.45 437.44">
  <defs>
    <style>
      .cls-1 {
        fill: url(#linear-gradient-2);
      }

      .cls-2 {
        fill: url(#linear-gradient);
      }

      .cls-3 {
        fill: #fff;
      }
    </style>
    <linearGradient id="linear-gradient" x1="203.94" y1="153.73" x2="295.43" y2="230.5" gradientUnits="userSpaceOnUse">
      <stop offset="0" stop-color="#fff" stop-opacity=".9"/>
      <stop offset=".38" stop-color="#fff" stop-opacity=".89"/>
      <stop offset=".52" stop-color="#fff" stop-opacity=".87"/>
      <stop offset=".62" stop-color="#fff" stop-opacity=".82"/>
      <stop offset=".69" stop-color="#fff" stop-opacity=".75"/>
      <stop offset=".76" stop-color="#fff" stop-opacity=".67"/>
      <stop offset=".82" stop-color="#fff" stop-opacity=".56"/>
      <stop offset=".88" stop-color="#fff" stop-opacity=".43"/>
      <stop offset=".93" stop-color="#fff" stop-opacity=".28"/>
      <stop offset=".97" stop-color="#fff" stop-opacity=".12"/>
      <stop offset="1" stop-color="#fff" stop-opacity="0"/>
    </linearGradient>
    <linearGradient id="linear-gradient-2" x1="128.35" y1="131.48" x2="204.93" y2="195.74" gradientUnits="userSpaceOnUse">
      <stop offset="0" stop-color="#fff" stop-opacity=".8"/>
      <stop offset=".39" stop-color="#fff" stop-opacity=".79"/>
      <stop offset=".53" stop-color="#fff" stop-opacity=".77"/>
      <stop offset=".63" stop-color="#fff" stop-opacity=".72"/>
      <stop offset=".71" stop-color="#fff" stop-opacity=".65"/>
      <stop offset=".78" stop-color="#fff" stop-opacity=".57"/>
      <stop offset=".84" stop-color="#fff" stop-opacity=".46"/>
      <stop offset=".9" stop-color="#fff" stop-opacity=".33"/>
      <stop offset=".95" stop-color="#fff" stop-opacity=".19"/>
      <stop offset=".99" stop-color="#fff" stop-opacity=".02"/>
      <stop offset="1" stop-color="#fff" stop-opacity="0"/>
    </linearGradient>
  </defs>
  <g id="Layer_1-2" data-name="Layer 1">
    <g>
      <g>
        <path class="cls-3" d="M599.74,352.8V73.52h58.45v279.28h-58.45ZM629.16,264.93v-45.87h68.51c16.77,0,29.81-4.29,39.1-12.87,9.29-8.58,13.94-20.74,13.94-36.48v-.39c0-16-4.64-28.22-13.94-36.68-9.29-8.45-22.32-12.68-39.1-12.68h-68.51v-46.45h82.84c19.61,0,36.77,3.97,51.48,11.9,14.71,7.93,26.16,19.06,34.35,33.39,8.19,14.32,12.29,31.1,12.29,50.32v.39c0,19.1-4.1,35.81-12.29,50.13-8.2,14.32-19.64,25.45-34.35,33.39-14.71,7.93-31.87,11.9-51.48,11.9h-82.84Z"/>
        <path class="cls-3" d="M837.92,352.8V73.52h56.51v107.61h1.16c5.42-12.9,13.51-22.8,24.29-29.71,10.77-6.9,23.9-10.35,39.39-10.35s28.06,3.32,38.9,9.97c10.84,6.65,19.19,16.03,25.06,28.16,5.87,12.13,8.81,26.58,8.81,43.35v130.25h-56.71v-118.64c0-14.45-3.42-25.77-10.26-33.97-6.84-8.19-16.71-12.29-29.61-12.29-8.26,0-15.45,1.97-21.58,5.9-6.13,3.94-10.9,9.36-14.32,16.26-3.42,6.9-5.13,14.87-5.13,23.9v118.83h-56.51Z"/>
        <path class="cls-3" d="M1126.8,356.09c-13.81,0-25.97-2.68-36.48-8.03-10.52-5.35-18.71-12.77-24.58-22.26-5.87-9.48-8.81-20.29-8.81-32.42v-.39c0-12.64,3.16-23.45,9.48-32.42,6.32-8.97,15.51-16.03,27.58-21.19,12.06-5.16,26.68-8.32,43.84-9.48l80.9-5.03v35.23l-72.38,4.84c-10.84.65-19.1,3.16-24.77,7.55-5.68,4.39-8.52,10.26-8.52,17.61v.39c0,7.62,2.9,13.58,8.71,17.9,5.81,4.32,13.61,6.48,23.42,6.48,8.39,0,15.9-1.65,22.55-4.94,6.64-3.29,11.87-7.81,15.68-13.55,3.8-5.74,5.71-12.16,5.71-19.26v-63.1c0-9.16-2.9-16.38-8.71-21.68-5.81-5.29-14.26-7.94-25.35-7.94s-18.97,2.16-25.16,6.48c-6.19,4.32-10,9.84-11.42,16.55l-.39,1.74h-51.87l.19-2.32c1.16-12.77,5.45-24.13,12.87-34.06,7.42-9.93,17.74-17.71,30.97-23.32,13.22-5.61,28.93-8.42,47.13-8.42s33.48,2.87,46.64,8.61c13.16,5.74,23.39,13.84,30.68,24.29,7.29,10.45,10.94,22.64,10.94,36.58v142.25h-56.51v-30.77h-1.16c-4,6.97-9.03,13.03-15.1,18.19-6.07,5.16-13,9.1-20.81,11.81-7.81,2.71-16.23,4.06-25.26,4.06Z"/>
        <path class="cls-3" d="M1280.21,352.8V73.52h56.51v279.28h-56.51Z"/>
        <path class="cls-3" d="M1433.42,356.09c-13.81,0-25.97-2.68-36.48-8.03-10.52-5.35-18.71-12.77-24.58-22.26-5.87-9.48-8.81-20.29-8.81-32.42v-.39c0-12.64,3.16-23.45,9.48-32.42,6.32-8.97,15.51-16.03,27.58-21.19,12.06-5.16,26.68-8.32,43.84-9.48l80.9-5.03v35.23l-72.38,4.84c-10.84.65-19.1,3.16-24.77,7.55-5.68,4.39-8.52,10.26-8.52,17.61v.39c0,7.62,2.9,13.58,8.71,17.9,5.81,4.32,13.61,6.48,23.42,6.48,8.39,0,15.9-1.65,22.55-4.94,6.64-3.29,11.87-7.81,15.68-13.55,3.8-5.74,5.71-12.16,5.71-19.26v-63.1c0-9.16-2.9-16.38-8.71-21.68-5.81-5.29-14.26-7.94-25.35-7.94s-18.97,2.16-25.16,6.48c-6.19,4.32-10,9.84-11.42,16.55l-.39,1.74h-51.87l.19-2.32c1.16-12.77,5.45-24.13,12.87-34.06,7.42-9.93,17.74-17.71,30.97-23.32,13.22-5.61,28.93-8.42,47.13-8.42s33.48,2.87,46.64,8.61c13.16,5.74,23.39,13.84,30.68,24.29,7.29,10.45,10.94,22.64,10.94,36.58v142.25h-56.51v-30.77h-1.16c-4,6.97-9.03,13.03-15.1,18.19-6.07,5.16-13,9.1-20.81,11.81-7.81,2.71-16.23,4.06-25.26,4.06Z"/>
        <path class="cls-3" d="M1585.47,352.8v-207.48h56.51v34.06h1.16c5.42-11.87,13.42-21.22,24-28.06,10.58-6.84,23.68-10.26,39.29-10.26,22.84,0,40.48,6.87,52.93,20.61,12.45,13.74,18.68,32.81,18.68,57.19v133.93h-56.51v-122.13c0-13.55-3.19-24.06-9.58-31.55-6.39-7.48-15.9-11.23-28.55-11.23-8.39,0-15.68,1.94-21.87,5.81-6.19,3.87-11,9.23-14.42,16.06-3.42,6.84-5.13,14.78-5.13,23.81v119.22h-56.51Z"/>
        <path class="cls-3" d="M1796.36,352.8l65.03-103.35-64.45-104.13h63.68l37.35,70.06h1.16l36.77-70.06h61.55l-64.84,102.58,64.26,104.9h-61.35l-39.48-71.8h-1.16l-38.9,71.8h-59.61Z"/>
      </g>
      <g>
        <path class="cls-3" d="M527.95,1.57L118.75,410.77l25.07,26.67c34.25-43.3,89.36-52.4,155.57-32.55,5.57,1.67,10.15,1.08,12.48-1.91C472.28,197.54,522.52,52.82,535.67,6.05c1.28-4.57-4.36-7.84-7.72-4.48Z"/>
        <path class="cls-2" d="M397.38,1.63L55.52,343.5l20.94,22.28c28.62-36.12,74.65-43.7,129.94-27.12,4.66,1.4,8.48.9,10.43-1.59C350.87,165.39,392.85,44.46,403.83,5.38c1.07-3.81-3.65-6.55-6.45-3.75Z"/>
        <path class="cls-1" d="M283.47.97L0,284.44l17.3,18.4c24.25-26.49,61.37-31.55,105.49-18.32,3.92,1.17,7.14.76,8.78-1.34C244.34,138.74,279.65,37,288.9,4.12c.9-3.21-3.07-5.51-5.43-3.15Z"/>
      </g>
    </g>
  </g>
</svg>